<svg width="72" height="60" fill="none" xmlns="http://www.w3.org/2000/svg"><path d="M37.187 21.414c-2.107-1.843-2.24-3.552-.533-5.667.24-.298.506-.596.72-.922 1.574-2.277 1.04-4.555-1.36-5.802a7.092 7.092 0 00-.64-.326c.026.136.026.217.052.271.8 1.573.64 3.01-.48 4.339a4.095 4.095 0 00-.48.705c-2.027 3.28-.027 6.806 2.721 7.402z" fill="#C99E71"/><path d="M33.026 18.622c-1.228-1.33-1.254-2.495-.16-3.905.16-.19.32-.407.453-.624 1.014-1.518.747-3.118-.667-4.04-.107-.081-.24-.163-.373-.244 0 .081 0 .136.026.19.454 1.085.294 2.088-.4 2.983-.107.135-.213.298-.32.46-1.28 2.224-.187 4.719 1.44 5.18zM38.2 19.815c-.346-.597-.506-1.22-.16-1.871.16-.299.374-.57.56-.814.428-.57.508-1.166.241-1.762-.427.596-.827 1.166-1.254 1.762-.8 1.085-.64 1.98.614 2.685zM7.496 36.762v-1.437l-.08-.027c-.533-.217-1.04-.353-1.547-.353-.747 0-1.36.272-1.787.814-.454.542-.667 1.274-.694 2.196 0 .922.213 1.681.64 2.197.427.542 1.04.813 1.787.84h.027a3.22 3.22 0 001.547-.407l.08-.027v-.867l-.186.108c-.507.271-.987.38-1.414.38-.507 0-.88-.19-1.147-.543-.267-.352-.427-.922-.4-1.708 0-.732.133-1.274.426-1.627.267-.352.64-.515 1.148-.515.32 0 .613.054.826.136v.867l.774-.027zM11.818 41.046c.693 0 1.254-.271 1.654-.813.4-.543.613-1.302.613-2.251 0-.895-.187-1.627-.56-2.142-.373-.543-.907-.814-1.6-.814-.694 0-1.254.271-1.681.814-.4.542-.614 1.274-.614 2.196 0 .922.187 1.681.587 2.224.4.488.934.759 1.6.786zm-.907-4.718c.24-.326.56-.515.987-.488.427 0 .747.162.96.515.24.353.347.895.347 1.627 0 .76-.133 1.329-.374 1.681-.24.353-.56.542-.96.542-.427 0-.72-.19-.96-.542-.24-.38-.347-.949-.347-1.681-.027-.76.107-1.329.347-1.654zM16.22 40.178v.787l2.187.027v-.787h-.694v-1.708h.854v.624h.747l.026-1.898h-.773v.515l-.854-.027.027-1.79h1.52v.732h.774l.027-1.491-3.788-.027v.786h.587l-.027 4.257h-.614zM21.795 40.233v.786h2.16l.027-.786h-.72l.027-1.681h.827v.623h.773V37.25h-.747v.515h-.853v-1.79h1.547l-.027.733h.8l.027-1.492-3.815-.054v.787h.614l-.027 4.284h-.613zM27.37 40.26l-.027.786 3.895.027.027-1.492h-.8v.705h-1.628v-1.79h.747v.624h.774v-1.925h-.747v.515h-.747v-1.708l1.52.027v.705l.8.027v-1.518l-3.787-.027v.786h.613l-.053 4.284-.587-.027zM33.239 40.314l-.027.786 3.895.027.027-1.49-.8-.028v.732l-1.628-.027v-1.79h.747v.624h.774V37.25h-.747v.515l-.774-.027.027-1.681h1.52v.732h.8v-1.491l-3.787-.028v.76l.613.027-.053 4.257h-.587zM48.791 36.979v-1.356l-.08-.027a2.992 2.992 0 00-1.387-.325c-.587 0-1.04.135-1.387.433a1.463 1.463 0 00-.533 1.166c0 .272.053.516.133.705.107.19.213.353.373.488.16.136.32.244.507.326.187.081.374.162.534.217.187.081.346.162.507.217.133.081.24.135.346.217.08.08.16.162.187.27.053.082.08.218.08.353 0 .271-.08.461-.267.624-.186.163-.453.217-.773.217s-.587-.027-.8-.109v-.813h-.8v1.383l.08.027c.453.19.933.298 1.466.298h.027c.587 0 1.067-.163 1.414-.46.373-.3.56-.733.56-1.248 0-.298-.053-.542-.133-.732a1.323 1.323 0 00-.374-.488 1.636 1.636 0 00-.507-.326l-.56-.244c-.187-.081-.347-.135-.507-.217a2.021 2.021 0 01-.346-.19 1.737 1.737 0 01-.214-.243.585.585 0 01-.08-.326c0-.217.08-.38.24-.542.16-.163.427-.244.747-.217.267 0 .507.054.694.108v.787l.853.027zM50.952 40.45v.786l2.081.027v-.786h-.614l.027-1.817 2.454.027v1.79h-.613v.786h2.054l.027-.76h-.614l.027-4.283h.613v-.787h-2.08v.76l.613.027-.027 1.68-2.454-.026v-1.681h.614v-.787h-2.054l-.027.787h.614l-.027 4.257h-.614zM60.69 41.426c.026 0 .026 0 0 0 .693 0 1.253-.271 1.653-.814.4-.542.614-1.301.614-2.25 0-.895-.187-1.627-.56-2.142-.374-.543-.907-.814-1.601-.814s-1.254.271-1.68.814c-.4.542-.614 1.274-.614 2.196 0 .922.186 1.681.587 2.224.4.488.933.759 1.6.786zm-.908-4.718c.24-.326.56-.488.987-.488.427 0 .747.162.96.515.24.352.347.895.347 1.627 0 .76-.133 1.328-.373 1.681-.24.352-.56.542-.96.542-.427 0-.72-.19-.96-.542-.24-.38-.348-.95-.348-1.681 0-.76.107-1.329.347-1.654zM65.118 40.558v.786l2.187.028v-.787h-.694v-1.491h.347c.64 0 1.147-.163 1.494-.461.347-.326.534-.786.534-1.41 0-.542-.16-.95-.454-1.247-.293-.299-.773-.434-1.387-.434l-1.947-.027v.786h.613l-.027 4.284-.666-.027zm1.867-2.25h-.374l.027-2.007h.427c.373 0 .64.081.8.217.16.136.24.38.24.76 0 .379-.106.623-.267.785-.24.163-.506.244-.853.244z" fill="#C99E71"/><path d="M63.303 31.827c.134-.109.24-.217.374-.326 1.44-1.301 1.414-1.925-.133-3.172-3.095-2.468-3.095-2.468-.88-5.776 1.013-1.545.773-2.549-.961-3.064-3.308-1.003-4.162-.623-2.614-5.341.026-.082.08-.19.106-.272.347-1.274-.026-1.898-1.36-2.06-.827-.109-1.68-.027-2.508-.082-1.734-.081-2.134-.542-2.187-2.305V8.236c0-2.657-.4-2.982-2.935-2.386-3.468.814-3.468.814-4.748-2.603C44.63 1.051 44.23.915 42.309 2.19c-3.121 2.033-3.121 2.033-5.495-.895-1.388-1.736-2.001-1.736-3.362.054-2.427 3.173-2.294 3.064-5.415.895-1.974-1.383-2.508-1.112-3.281 1.22-.88 2.685-1.2 3.905-4.295 2.468-.213-.109-.48-.082-.72-.136-2.054-.488-2.561-.19-2.535 1.925.027 4.122-.453 4.095-4.108 4.068-1.947 0-2.4.677-1.867 2.521 1.094 3.85 1.094 3.85-2.614 5.206-1.734.624-2.055 1.546-1.014 3.037 2.4 3.471 2.454 3.39-.934 5.884-1.467 1.085-1.467 1.926-.08 3.064.16.136.32.244.48.38H0v1.112h71.893V31.88h-8.59v-.054zm-51.539-1.925C11.791 16.859 22.302 6.257 35.133 6.23c12.885 0 23.449 10.738 23.369 23.861 0 .57-.027 1.166-.08 1.736h-8.724c2.615-1.817 3.895-4.393 2.882-5.993-.56-.895-1.761-1.274-3.255-1.084.053-.38.107-.76.133-1.14a1.622 1.622 0 00-.426-1.274 1.705 1.705 0 00-1.254-.569H23.502c-.48 0-.934.217-1.254.57-.32.352-.453.786-.427 1.274.267 3.118 1.36 5.938 3.015 8.216H11.844a22.723 22.723 0 01-.08-1.925zm34.813 1.708a17.111 17.111 0 002.401-5.152c1.014-.244 1.84-.108 2.134.353.24.38.134 1.003-.267 1.68-.453.76-1.227 1.52-2.187 2.143-.694.46-1.387.786-2.08.976zm-36.76-2.197c.32-14.235 11.738-25.298 25.636-25.163 13.899.136 25.53 12.121 24.943 26.926 0 .217-.027.434-.027.65h-1.067c.053-.596.08-1.22.08-1.843.027-13.503-10.857-24.594-24.116-24.62-13.418-.028-24.329 10.98-24.355 24.566 0 .65.026 1.274.08 1.898H9.87c-.054-.787-.054-1.6-.054-2.414zM0 44.924h11.418c-.8 3.145-.56 3.172 3.147 3.28 2.081.055 2.508.489 2.615 2.55.186 4.121.186 4.121 4.055 2.982 1.76-.515 2.4-.217 3.067 1.492.267.65.4 1.328.64 1.98.507 1.382 1.228 1.68 2.508.948.774-.434 1.44-1.03 2.188-1.491.933-.597 1.814-.705 2.56.38.534.759 1.121 1.518 1.735 2.223.827.976 1.6.976 2.454 0 .56-.624 1.014-1.329 1.547-1.98 1.014-1.247 1.707-1.355 3.015-.46.693.46 1.36.948 2.08 1.382 1.094.705 1.841.353 2.268-.867.267-.76.613-1.492.827-2.25.346-1.357 1.173-1.79 2.427-1.492.774.19 1.494.515 2.241.732 1.547.46 2.374-.109 2.454-1.763.027-.786.027-1.6.027-2.413-.027-1.22.614-1.844 1.76-1.952.48-.054.988 0 1.815 0 2.454.19 3.174-.597 2.08-3.308H72v-1.112H0v1.139zm53.246 0c-4.321 5.396-10.91 8.84-18.193 8.73-7.256 0-13.765-3.416-18.033-8.73h36.226zm-18.22 10.683c-8.51 0-15.926-4.257-20.487-10.71h1.387c4.428 5.857 11.39 9.626 19.234 9.626 7.763.081 14.752-3.742 19.18-9.626h1.28c-4.668 6.535-12.27 10.846-20.594 10.71z" fill="#C99E71"/></svg>